<svg xmlns="http://www.w3.org/2000/svg" viewBox="0 0 900 700">
<defs>
 <linearGradient id="bg" x1="0" y1="0" x2="1" y2="1"><stop stop-color="#fffaf8"/><stop offset="1" stop-color="#bb665e"/></linearGradient>
 <filter id="shadow" x="-30%" y="-30%" width="160%" height="180%"><feDropShadow dx="0" dy="22" stdDeviation="18" flood-color="#654f4a" flood-opacity=".18"/></filter>
 <linearGradient id="glass" x1="0" y1="0" x2="1" y2="1"><stop stop-color="#fff" stop-opacity=".96"/><stop offset="1" stop-color="#f4ece8" stop-opacity=".9"/></linearGradient>
</defs>
<rect width="900" height="700" rx="48" fill="url(#bg)"/>
<circle cx="110" cy="105" r="58" fill="#fff" opacity=".42"/><circle cx="790" cy="590" r="92" fill="#fff" opacity=".28"/>
<ellipse cx="450" cy="585" rx="220" ry="35" fill="#5e4841" opacity=".12"/>
<g filter="url(#shadow)"><rect x="355" y="315" width="190" height="235" rx="34" fill="#f6eee9"/><rect x="365" y="330" width="170" height="205" rx="28" fill="#b62f43"/><rect x="382" y="201" width="136" height="148" rx="20" fill="#efdfd7"/><path d="M405 201c0-78 88-111 102-34v61H405z" fill="#bb665e"/><rect x="390" y="327" width="120" height="18" rx="9" fill="#fff" opacity=".5"/></g><text x="450" y="424" text-anchor="middle" font-family="Arial,Helvetica,sans-serif" font-size="32" font-weight="800" fill="#b62f43">HANASUI</text>
<text x="450" y="467" text-anchor="middle" font-family="Arial,Helvetica,sans-serif" font-size="20" font-weight="700" letter-spacing="3" fill="#4a403e">MATTEDORABLE</text>
<text x="450" y="502" text-anchor="middle" font-family="Arial,Helvetica,sans-serif" font-size="17" font-weight="700" fill="#6e615d">02 CHIC</text></svg>