<svg xmlns="http://www.w3.org/2000/svg" viewBox="0 0 900 700">
<defs>
 <linearGradient id="bg" x1="0" y1="0" x2="1" y2="1"><stop stop-color="#fffaf8"/><stop offset="1" stop-color="#c9956c"/></linearGradient>
 <filter id="shadow" x="-30%" y="-30%" width="160%" height="180%"><feDropShadow dx="0" dy="22" stdDeviation="18" flood-color="#654f4a" flood-opacity=".18"/></filter>
 <linearGradient id="glass" x1="0" y1="0" x2="1" y2="1"><stop stop-color="#fff" stop-opacity=".96"/><stop offset="1" stop-color="#f4ece8" stop-opacity=".9"/></linearGradient>
</defs>
<rect width="900" height="700" rx="48" fill="url(#bg)"/>
<circle cx="110" cy="105" r="58" fill="#fff" opacity=".42"/><circle cx="790" cy="590" r="92" fill="#fff" opacity=".28"/>
<ellipse cx="450" cy="585" rx="220" ry="35" fill="#5e4841" opacity=".12"/>
<g filter="url(#shadow)"><rect x="352" y="253" width="196" height="322" rx="37" fill="#c9956c" stroke="#fff" stroke-width="10"/><rect x="386" y="180" width="128" height="92" rx="20" fill="#272727"/><rect x="428" y="135" width="44" height="68" rx="9" fill="#272727"/><path d="M472 147h76c28 0 37 32 12 44l-36 16" fill="none" stroke="#272727" stroke-width="18" stroke-linecap="round"/><rect x="374" y="304" width="152" height="216" rx="24" fill="#fff" opacity=".82"/></g><text x="450" y="390" text-anchor="middle" font-family="Arial,Helvetica,sans-serif" font-size="32" font-weight="800" fill="#161616">MAKE OVER</text>
<text x="450" y="433" text-anchor="middle" font-family="Arial,Helvetica,sans-serif" font-size="20" font-weight="700" letter-spacing="3" fill="#4a403e">POWERSTAY</text>
<text x="450" y="468" text-anchor="middle" font-family="Arial,Helvetica,sans-serif" font-size="17" font-weight="700" fill="#6e615d">N30 NATURAL BEIGE</text></svg>