<svg xmlns="http://www.w3.org/2000/svg" viewBox="0 0 900 700">
<defs>
 <linearGradient id="bg" x1="0" y1="0" x2="1" y2="1"><stop stop-color="#fffaf8"/><stop offset="1" stop-color="#eadb9d"/></linearGradient>
 <filter id="shadow" x="-30%" y="-30%" width="160%" height="180%"><feDropShadow dx="0" dy="22" stdDeviation="18" flood-color="#654f4a" flood-opacity=".18"/></filter>
 <linearGradient id="glass" x1="0" y1="0" x2="1" y2="1"><stop stop-color="#fff" stop-opacity=".96"/><stop offset="1" stop-color="#f4ece8" stop-opacity=".9"/></linearGradient>
</defs>
<rect width="900" height="700" rx="48" fill="url(#bg)"/>
<circle cx="110" cy="105" r="58" fill="#fff" opacity=".42"/><circle cx="790" cy="590" r="92" fill="#fff" opacity=".28"/>
<ellipse cx="450" cy="585" rx="220" ry="35" fill="#5e4841" opacity=".12"/>
<g filter="url(#shadow)"><rect x="354" y="270" width="192" height="294" rx="46" fill="url(#glass)" stroke="#fff" stroke-width="10"/><rect x="383" y="169" width="134" height="121" rx="22" fill="#b68a26"/><rect x="418" y="118" width="64" height="80" rx="18" fill="#f9f5f2"/><path d="M450 187v142" stroke="#3c4248" stroke-width="9" stroke-linecap="round"/><path d="M450 340c-24 27-24 47 0 64 24-17 24-37 0-64z" fill="#eadb9d"/></g><text x="450" y="435" text-anchor="middle" font-family="Arial,Helvetica,sans-serif" font-size="32" font-weight="800" fill="#b68a26">SKINTIFIC</text>
<text x="450" y="478" text-anchor="middle" font-family="Arial,Helvetica,sans-serif" font-size="20" font-weight="700" letter-spacing="3" fill="#4a403e">NIACINAMIDE</text>
<text x="450" y="513" text-anchor="middle" font-family="Arial,Helvetica,sans-serif" font-size="17" font-weight="700" fill="#6e615d">20 ML</text></svg>